:version 1.10
:name ASF
:units
  mass 1
  length 1
  angle deg
:documentation
  ASF file generated by Kaydara
:root
  axis xyz
  order  tx ty tz rx ry rz
  position 0 0 0
  orientation 0 0 0
:bonedata
  begin
    id 1
    name RightUpLegDummy
    direction -1 2.30186e-007 8.31532e-007
    length 4.04083
    axis 0 0 0 xyz
  end
  begin
    id 2
    name RightUpLeg
    direction -0.000919234 -0.999985 0.00544864
    length 17.4221
    axis -3.80308 -0.00076134 -0.0523649 xyz
    dof rx ry rz
  end
  begin
    id 3
    name RightLeg
    direction -0.000919271 -0.999984 -0.00555045
    length 17.1239
    axis 4.00314 0.0181274 -0.183583 xyz
    dof rx ry rz
  end
  begin
    id 4
    name RightFoot
    direction -2.57843e-005 -4.04509e-007 1
    length 6.72091
    axis 8.18909e-005 -0.122003 -0.403008 xyz
    dof rx ry rz
  end
  begin
    id 5
    name RightToes
    direction 0.00116825 -0.014069 0.9999
    length 3.85082
    axis 0.000514414 0.540638 -0.356797 xyz
    dof rx ry rz
  end
  begin
    id 6
    name SpineDummy
    direction 0.0168869 0.966876 -0.254689
    length 6.99894
    axis 0 0 0 xyz
  end
  begin
    id 7
    name Spine
    direction -0.0132008 0.999903 0.00446247
    length 11.1999
    axis -0.00148109 0.00725429 0.756411 xyz
    dof rx ry rz
  end
  begin
    id 8
    name Spine1
    direction 0 0 0
    length 0
    axis -0.000934958 0.0245693 1.46543 xyz
    dof rx ry rz
  end
  begin
    id 9
    name HEadDummy
    direction -0.0255732 0.999672 0.00128215
    length 3.43865
    axis -0.000934958 0.0245693 1.46543 xyz
  end
  begin
    id 10
    name HEad
    direction -0.0472656 0.980052 0.19304
    length 5.12695
    axis -0.000934954 0.0245693 1.46543 xyz
    dof rx ry rz
  end
  begin
    id 11
    name LeftShoulder1Dummy
    direction 0.953098 0.301717 -0.023914
    length 3.68488
    axis -0.000934958 0.0245693 1.46543 xyz
  end
  begin
    id 12
    name LeftShoulder1
    direction 0.962466 0.271167 0.0112566
    length 3.13809
    axis -0.000934958 0.0245693 1.46543 xyz
    dof rx ry rz
  end
  begin
    id 13
    name LeftArm
    direction 0.999943 0.00455037 -0.00961766
    length 11.3419
    axis -23.1648 0.685459 1.22814 xyz
    dof rx ry rz
  end
  begin
    id 14
    name LeftForeArm
    direction 0.999332 0.0131969 0.0340885
    length 8.70632
    axis -9.90633 0.618216 0.0826942 xyz
    dof rx ry rz
  end
  begin
    id 15
    name LeftHand
    direction 0.994373 -0.0366703 0.0993905
    length 5.32135
    axis 0.00675269 0.680415 0.445699 xyz
    dof rx ry rz
  end
  begin
    id 16
    name RightShoulderDummy
    direction -0.967298 0.252589 -0.0230903
    length 3.68488
    axis -0.000934958 0.0245693 1.46543 xyz
  end
  begin
    id 17
    name RightShoulder
    direction -0.975062 0.221602 0.0120823
    length 3.13809
    axis 0.216257 0.0246515 1.45863 xyz
    dof rx ry rz
  end
  begin
    id 18
    name RightArm
    direction -0.99886 -0.00851186 -0.0469687
    length 10.3947
    axis -23.196 0.23503 -0.532632 xyz
    dof rx ry rz
  end
  begin
    id 19
    name RightForeArm
    direction -0.99909 0.00114866 0.0426317
    length 8.68355
    axis -9.91764 -0.134943 0.610517 xyz
    dof rx ry rz
  end
  begin
    id 20
    name RightHand
    direction -0.992888 -0.0489538 0.10852
    length 5.28593
    axis -0.00275396 -0.197403 0.246414 xyz
    dof rx ry rz
  end
  begin
    id 21
    name LeftUpLegDummy
    direction 1 -2.30186e-007 -8.31532e-007
    length 4.04083
    axis 0 0 0 xyz
  end
  begin
    id 22
    name LeftUpLeg
    direction -0.000920097 -1 2.79241e-006
    length 17.4221
    axis -3.48782 0.00143434 -0.0532288 xyz
    dof rx ry rz
  end
  begin
    id 23
    name LeftLeg
    direction -0.000920097 -1 2.7912e-006
    length 17.1239
    axis 3.68162 -0.00806512 -0.0529896 xyz
    dof rx ry rz
  end
  begin
    id 24
    name LeftFoot
    direction -2.57845e-005 -3.987e-007 1
    length 6.72091
    axis 3.02372e-005 -0.00147829 -0.214229 xyz
    dof rx ry rz
  end
  begin
    id 25
    name LeftToes
    direction 0.00813577 -0.00488255 0.999955
    length 3.85048
    axis 3.89895e-005 -0.0014783 -0.214229 xyz
    dof rx ry rz
  end
:hierarchy
  begin
    root RightUpLegDummy SpineDummy LeftUpLegDummy
    RightUpLegDummy RightUpLeg
    RightUpLeg RightLeg
    RightLeg RightFoot
    RightFoot RightToes
    SpineDummy Spine
    Spine Spine1
    Spine1 HEadDummy LeftShoulder1Dummy RightShoulderDummy
    HEadDummy HEad
    LeftShoulder1Dummy LeftShoulder1
    LeftShoulder1 LeftArm
    LeftArm LeftForeArm
    LeftForeArm LeftHand
    RightShoulderDummy RightShoulder
    RightShoulder RightArm
    RightArm RightForeArm
    RightForeArm RightHand
    LeftUpLegDummy LeftUpLeg
    LeftUpLeg LeftLeg
    LeftLeg LeftFoot
    LeftFoot LeftToes
  end

:SAMPLES-PER-SECOND 30
:FULLY-SPECIFIED
:DEGREES
129
root  -15.52 34.1229 0.148861 -128.202 -0.982315 177.925
RightUpLeg  -67.7966 -7.74547 11.0158
RightLeg  8.73281 3.85688 0.341802
RightFoot  14.5841 -0.0613853 0.980137
RightToes  -17.2975 -0.0664314 -0.154539
Spine  14.7758 -0.0568711 2.03857
Spine1  29.2231 -0.163418 3.57752
HEad  -9.70053 -9.17599 -2.3834
LeftShoulder1  -1.94126e-019 -3.10601e-018 -2.51263e-017
LeftArm  -13.2273 8.11884 -83.7658
LeftForeArm  11.413 -45.8875 -10.6224
LeftHand  -0.316359 -2.12015 4.92939
RightShoulder  -4.96962e-017 0 -2.36833e-017
RightArm  -20.7511 -5.9582 75.5463
RightForeArm  28.5612 44.5725 8.81852
RightHand  -0.407714 -2.11694 -14.2531
LeftUpLeg  -66.9568 -6.35345 4.0918
LeftLeg  8.59132 11.4935 0.979366
LeftFoot  17.0101 -0.501959 3.52954
LeftToes  -15.6011 1.31424e-006 1.14295e-007
130
root  -15.5494 34.1156 0.192587 -128.36 -1.05739 177.929
RightUpLeg  -67.7091 -7.82208 10.9865
RightLeg  8.71951 3.80303 0.33616
RightFoot  14.6702 -0.0612579 0.972109
RightToes  -17.4517 -0.0669321 -0.155539
Spine  14.7264 -0.0829518 2.06972
Spine1  29.1283 -0.215591 3.62426
HEad  -9.48245 -9.13812 -2.45223
LeftShoulder1  -1.94126e-019 -3.10601e-018 -2.51263e-017
LeftArm  -13.1759 8.12376 -83.7774
LeftForeArm  11.4316 -45.8116 -10.5922
LeftHand  -0.315799 -2.04138 4.95561
RightShoulder  -4.96962e-017 0 -2.36833e-017
RightArm  -20.7644 -5.94244 75.4925
RightForeArm  28.6523 44.3599 8.73925
RightHand  -0.417468 -2.04374 -14.2882
LeftUpLeg  -66.8716 -6.35716 3.96936
LeftLeg  8.58784 11.3549 0.967009
LeftFoot  17.0613 -0.499466 3.49729
LeftToes  -15.5849 1.31424e-006 1.14295e-007
131
root  -15.5664 34.1036 0.229311 -128.524 -1.09299 177.93
RightUpLeg  -67.6139 -7.86622 10.9481
RightLeg  8.72965 3.76321 0.333324
RightFoot  14.7128 -0.0610328 0.965066
RightToes  -17.6057 -0.0673688 -0.156453
Spine  14.658 -0.105141 2.07491
Spine1  28.9946 -0.253325 3.62226
HEad  -9.21105 -9.06126 -2.57671
LeftShoulder1  -1.94126e-019 -3.10601e-018 -2.51263e-017
LeftArm  -13.1357 8.15015 -83.762
LeftForeArm  11.5779 -45.5834 -10.4929
LeftHand  -0.314973 -2.10126 5.02314
RightShoulder  -4.96962e-017 0 -2.36833e-017
RightArm  -20.8235 -5.91876 75.5194
RightForeArm  28.8562 44.1349 8.64882
RightHand  -0.415621 -2.05977 -14.2908
LeftUpLeg  -66.8045 -6.36452 3.89678
LeftLeg  8.65669 11.2894 0.975063
LeftFoot  17.0552 -0.497661 3.47671
LeftToes  -15.5709 1.31424e-006 1.14295e-007
132
root  -15.5825 34.0924 0.273961 -128.757 -1.14891 177.92
RightUpLeg  -67.4731 -7.92726 10.8796
RightLeg  8.77156 3.70515 0.330929
RightFoot  14.7527 -0.0602702 0.95298
RightToes  -17.7321 -0.0677609 -0.15729
Spine  14.5894 -0.146113 2.06484
Spine1  28.8594 -0.316182 3.57186
HEad  -8.96752 -8.98707 -2.75666
LeftShoulder1  -1.94126e-019 -3.10601e-018 -2.51263e-017
LeftArm  -13.0674 8.20815 -83.6761
LeftForeArm  11.654 -45.3871 -10.412
LeftHand  -0.314249 -2.12604 5.01972
RightShoulder  -4.96962e-017 0 -2.36833e-017
RightArm  -20.8388 -5.84627 75.5599
RightForeArm  28.9537 43.8566 8.54823
RightHand  -0.415085 -2.06815 -14.3072
LeftUpLeg  -66.7038 -6.43083 3.87587
LeftLeg  8.74437 11.2229 0.986569
LeftFoot  17.0628 -0.495982 3.4579
LeftToes  -16.3131 1.31424e-006 1.14295e-007
133
root  -15.5919 34.0825 0.318516 -128.998 -1.22388 177.931
RightUpLeg  -67.3289 -7.92026 10.7521
RightLeg  8.8627 3.52561 0.3206
RightFoot  14.7583 -0.0569886 0.907803
RightToes  -17.825 -0.0681276 -0.158058
Spine  14.5264 -0.182502 2.04915
Spine1  28.7343 -0.362206 3.50096
HEad  -8.9514 -8.88297 -2.98616
LeftShoulder1  -1.94126e-019 -3.10601e-018 -2.51263e-017
LeftArm  -13.0165 8.27318 -83.5836
LeftForeArm  11.7277 -45.2691 -10.3619
LeftHand  -0.31397 -2.14013 4.95971
RightShoulder  -4.96962e-017 0 -2.36833e-017
RightArm  -20.8657 -5.74948 75.6222
RightForeArm  28.9171 43.5332 8.44222
RightHand  -0.426177 -1.96646 -14.2696
LeftUpLeg  -66.5709 -6.47458 3.87429
LeftLeg  8.81353 11.253 1.00277
LeftFoot  17.099 -0.496612 3.47369
LeftToes  -15.6162 1.31424e-006 1.14295e-007
134
root  -15.5975 34.0677 0.358883 -129.287 -1.43079 177.932
RightUpLeg  -67.1028 -7.99025 10.6584
RightLeg  8.89969 3.32485 0.304575
RightFoot  14.7638 -0.0531006 0.857106
RightToes  -17.9939 -0.0684882 -0.158763
Spine  14.5003 -0.222493 2.08173
Spine1  28.6853 -0.42957 3.52297
HEad  -9.0245 -8.87207 -3.1766
LeftShoulder1  -1.94126e-019 -3.10601e-018 -2.51263e-017
LeftArm  -12.931 8.27979 -83.5553
LeftForeArm  11.8101 -45.1063 -10.2941
LeftHand  -0.311758 -2.21537 5.08745
RightShoulder  -4.96962e-017 0 -2.36833e-017
RightArm  -21.0221 -5.71676 75.6402
RightForeArm  28.9141 43.4637 8.4183
RightHand  -0.408182 -2.0754 -14.095
LeftUpLeg  -66.3922 -6.56224 3.89304
LeftLeg  8.85651 11.1002 0.997646
LeftFoot  17.1121 -0.49347 3.42822
LeftToes  -16.1002 1.31424e-006 1.14295e-007
